<?xml version="1.0" encoding="utf-8"?>
<!-- Generator: Adobe Illustrator 19.0.0, SVG Export Plug-In . SVG Version: 6.00 Build 0)  -->
<svg version="1.1" id="Calque_1" xmlns="http://www.w3.org/2000/svg" xmlns:xlink="http://www.w3.org/1999/xlink" x="0px" y="0px"
	 viewBox="0 0 566.9 566.9" style="enable-background:new 0 0 566.9 566.9;" xml:space="preserve">
<style type="text/css">
	.st0{fill:#CA3F32;}
	.st1{fill:#DB3C34;}
	.st2{fill:#E16840;}
	.st3{fill:#DFA142;}
	.st4{fill:#F9CE47;}
	.st5{fill:#57B058;}
	.st6{fill:#6CB557;}
	.st7{fill:#55B493;}
	.st8{fill:#48BDE9;}
	.st9{fill:#029ABB;}
	.st10{fill:#0F5C87;}
	.st11{fill:#326A9C;}
	.st12{fill:#8F6AA7;}
</style>
<g id="XMLID_14_">
	<path id="XMLID_13_" class="st0" d="M439.1,197.1c0,0-34-42.9-67.1-59L459,46c0,0,52.3,34,83.2,84.1L439.1,197.1z"/>
	<path id="XMLID_12_" class="st1" d="M459,46c0,0-40.2-30.5-92.5-40.5l-0.7,129.6c0,0,5.8,2.2,6.2,3C372.4,138.7,459,46,459,46z"/>
	<path id="XMLID_11_" class="st2" d="M366.6,5.5l-0.7,129.6c0,0-71.4-23.6-121.1,0V7.7C244.9,7.7,298.9-8,366.6,5.5L366.6,5.5z"/>
	<path id="XMLID_10_" class="st3" d="M244.9,135.1V7.7c0,0-46.1,6.5-92.4,36.3l90.4,91.8C242.9,135.8,243.5,135.2,244.9,135.1z"/>
	<path id="XMLID_9_" class="st4" d="M242.9,135.8c0,0-58.3,20.7-84.5,84.9l-92.1-89.6c0,0,24.3-46.1,86.2-87L242.9,135.8z"/>
	<path id="XMLID_8_" class="st5" d="M66.3,131.2l92.1,89.6l-0.8,2.4l-127.8-2.4C29.8,220.7,37.8,169.1,66.3,131.2z"/>
	<path id="XMLID_7_" class="st6" d="M29.8,220.7l127.8,2.4c0,0-25.2,71.8,0,121.1l-128.5,2.1C29.1,346.1,18.4,280.9,29.8,220.7
		L29.8,220.7z"/>
	<path id="XMLID_6_" class="st7" d="M29.1,346.1l128.5-2.1L67.3,436C67.3,436.1,40.1,398.7,29.1,346.1L29.1,346.1z"/>
	<path id="XMLID_5_" class="st8" d="M157.6,344.2c0,0,14.3,48.6,85.5,86.7l-91,89.7c0,0-58.8-35.7-84.9-84.6L157.6,344.2z"/>
	<path id="XMLID_4_" class="st9" d="M243.1,430.9c0,0,1.8,0.8,2.5,1.1v126.8c0,0-64.5-13.9-93.4-38.1L243.1,430.9z"/>
	<path id="XMLID_3_" class="st10" d="M245.6,432c0,0,60.2,23.8,119.9-1.5l0.3,129.6c0,0-49.1,16.2-120.2-1.3V432z"/>
	<path id="XMLID_2_" class="st11" d="M365.5,430.5l2-0.8l88.9,91.1c0,0-43.3,30.5-90.5,39.4L365.5,430.5z"/>
	<path id="XMLID_1_" class="st12" d="M367.5,429.6c0,0,38-12.5,70-61.9l104.9,67.8c0,0-31.2,47.9-86,85.1L367.5,429.6z"/>
</g>
<g id="XMLID_15_">
</g>
<g id="XMLID_16_">
</g>
<g id="XMLID_17_">
</g>
<g id="XMLID_18_">
</g>
<g id="XMLID_19_">
</g>
<g id="XMLID_20_">
</g>
</svg>
