<?xml version="1.0" encoding="utf-8"?>
<!-- Generator: Adobe Illustrator 19.0.0, SVG Export Plug-In . SVG Version: 6.00 Build 0)  -->
<svg version="1.1" id="Calque_1" xmlns="http://www.w3.org/2000/svg" xmlns:xlink="http://www.w3.org/1999/xlink" x="0px" y="0px"
	 viewBox="0 0 368.3 403.2" style="enable-background:new 0 0 368.3 403.2;" xml:space="preserve">
<style type="text/css">
	.st0{fill:none;stroke:#000000;stroke-miterlimit:10;}
	.st1{fill:#C93C32;}
	.st2{fill:#DB3832;}
	.st3{fill:#E16740;}
	.st4{fill:#DEA041;}
	.st5{fill:#F9CD46;}
	.st6{fill:#55AF58;}
	.st7{fill:#6BB557;}
	.st8{fill:#54B493;}
	.st9{fill:#47BDEA;}
	.st10{fill:#0099BA;}
	.st11{fill:#105B86;}
	.st12{fill:#31699B;}
	.st13{fill:#8E69A7;}
</style>
<g id="XMLID_132_">
	<path id="XMLID_147_" class="st0" d="M-2.3,55.5"/>
	<g id="XMLID_133_">
		<path id="XMLID_146_" class="st1" d="M294.8,140.2c0,0-24.2-30.5-47.7-42L309,32.7c0,0,37.2,24.2,59.2,59.8L294.8,140.2z"/>
		<path id="XMLID_145_" class="st2" d="M309,32.7c0,0-28.6-21.7-65.8-28.8l-0.5,92.2c0,0,4.1,1.6,4.4,2.1
			C247.4,98.7,309,32.7,309,32.7z"/>
		<path id="XMLID_144_" class="st3" d="M243.3,3.9l-0.5,92.2c0,0-50.8-16.8-86.1,0V5.5C156.7,5.5,195.1-5.7,243.3,3.9z"/>
		<path id="XMLID_143_" class="st4" d="M156.7,96.1V5.5c0,0-32.8,4.6-65.7,25.8l64.3,65.3C155.3,96.6,155.7,96.2,156.7,96.1z"/>
		<path id="XMLID_142_" class="st5" d="M155.3,96.6c0,0-41.5,14.7-60.1,60.4L29.7,93.3c0,0,17.3-32.8,61.3-61.9L155.3,96.6z"/>
		<path id="XMLID_141_" class="st6" d="M29.7,93.3L95.2,157l-0.6,1.7L3.7,157C3.7,157,9.4,120.3,29.7,93.3z"/>
		<path id="XMLID_140_" class="st7" d="M3.7,157l90.9,1.7c0,0-17.9,51.1,0,86.1l-91.4,1.5C3.2,246.2-4.4,199.8,3.7,157z"/>
		<path id="XMLID_139_" class="st8" d="M3.2,246.2l91.4-1.5l-64.2,65.4C30.4,310.2,11,283.6,3.2,246.2z"/>
		<path id="XMLID_138_" class="st9" d="M94.6,244.8c0,0,10.2,34.6,60.8,61.7l-64.7,63.8c0,0-41.8-25.4-60.4-60.2L94.6,244.8z"/>
		<path id="XMLID_137_" class="st10" d="M155.4,306.5c0,0,1.3,0.6,1.8,0.8v90.2c0,0-45.9-9.9-66.4-27.1L155.4,306.5z"/>
		<path id="XMLID_136_" class="st11" d="M157.2,307.3c0,0,42.8,16.9,85.3-1.1l0.2,92.2c0,0-34.9,11.5-85.5-0.9V307.3z"/>
		<path id="XMLID_135_" class="st12" d="M242.5,306.2l1.4-0.6l63.2,64.8c0,0-30.8,21.7-64.4,28L242.5,306.2z"/>
		<path id="XMLID_134_" class="st13" d="M243.9,305.6c0,0,27-8.9,49.8-44l74.6,48.2c0,0-22.2,34.1-61.2,60.5L243.9,305.6z"/>
	</g>
</g>
</svg>
