<?xml version="1.0" encoding="utf-8"?>
<!-- Generator: Adobe Illustrator 19.0.0, SVG Export Plug-In . SVG Version: 6.00 Build 0)  -->
<svg version="1.1" id="Calque_1" xmlns="http://www.w3.org/2000/svg" xmlns:xlink="http://www.w3.org/1999/xlink" x="0px" y="0px"
	 viewBox="0 0 1233.5 403.2" style="enable-background:new 0 0 1233.5 403.2;" xml:space="preserve">
<style type="text/css">
	.st0{fill:none;stroke:#000000;stroke-miterlimit:10;}
	.st1{fill:#C93C32;}
	.st2{fill:#DB3832;}
	.st3{fill:#E16740;}
	.st4{fill:#DEA041;}
	.st5{fill:#F9CD46;}
	.st6{fill:#55AF58;}
	.st7{fill:#6BB557;}
	.st8{fill:#54B493;}
	.st9{fill:#47BDEA;}
	.st10{fill:#0099BA;}
	.st11{fill:#105B86;}
	.st12{fill:#31699B;}
	.st13{fill:#8E69A7;}
</style>
<g id="XMLID_132_">
	<path id="XMLID_147_" class="st0" d="M0,55.5"/>
	<g id="XMLID_133_">
		<path id="XMLID_146_" class="st1" d="M297.2,140.2c0,0-24.2-30.5-47.7-42l61.9-65.5c0,0,37.2,24.2,59.2,59.8L297.2,140.2z"/>
		<path id="XMLID_145_" class="st2" d="M311.4,32.7c0,0-28.6-21.7-65.8-28.8l-0.5,92.2c0,0,4.1,1.6,4.4,2.1
			C249.8,98.7,311.4,32.7,311.4,32.7z"/>
		<path id="XMLID_144_" class="st3" d="M245.6,3.9l-0.5,92.2c0,0-50.8-16.8-86.1,0V5.5C159,5.5,197.4-5.7,245.6,3.9z"/>
		<path id="XMLID_143_" class="st4" d="M159,96.1V5.5c0,0-32.8,4.6-65.7,25.8l64.3,65.3C157.7,96.6,158,96.2,159,96.1z"/>
		<path id="XMLID_142_" class="st5" d="M157.7,96.6c0,0-41.5,14.7-60.1,60.4L32,93.3c0,0,17.3-32.8,61.3-61.9L157.7,96.6z"/>
		<path id="XMLID_141_" class="st6" d="M32,93.3L97.5,157l-0.6,1.7L6.1,157C6.1,157,11.7,120.3,32,93.3z"/>
		<path id="XMLID_140_" class="st7" d="M6.1,157l90.9,1.7c0,0-17.9,51.1,0,86.1l-91.4,1.5C5.6,246.2-2,199.8,6.1,157z"/>
		<path id="XMLID_139_" class="st8" d="M5.6,246.2l91.4-1.5l-64.2,65.4C32.7,310.2,13.4,283.6,5.6,246.2z"/>
		<path id="XMLID_138_" class="st9" d="M97,244.8c0,0,10.2,34.6,60.8,61.7l-64.7,63.8c0,0-41.8-25.4-60.4-60.2L97,244.8z"/>
		<path id="XMLID_137_" class="st10" d="M157.8,306.5c0,0,1.3,0.6,1.8,0.8v90.2c0,0-45.9-9.9-66.4-27.1L157.8,306.5z"/>
		<path id="XMLID_136_" class="st11" d="M159.5,307.3c0,0,42.8,16.9,85.3-1.1l0.2,92.2c0,0-34.9,11.5-85.5-0.9V307.3z"/>
		<path id="XMLID_135_" class="st12" d="M244.8,306.2l1.4-0.6l63.2,64.8c0,0-30.8,21.7-64.4,28L244.8,306.2z"/>
		<path id="XMLID_134_" class="st13" d="M246.3,305.6c0,0,27-8.9,49.8-44l74.6,48.2c0,0-22.2,34.1-61.2,60.5L246.3,305.6z"/>
	</g>
</g>
<g id="XMLID_214_">
	<path id="XMLID_215_" d="M428.6,184.7c5.1,9.8,4.4,23.3-2.1,40.4c-6,16.5-14.4,28.3-25.3,35.3c-13.9,9.1-26.6,6.4-38-8.2
		c-9-15.5-10.7-32.3-5.3-50.6c4.4-15.1,12.1-25.7,23.2-31.6c14.1-7.6,28-4.7,41.9,8.7C424.8,180.4,426.6,182.4,428.6,184.7z
		 M405.9,214.5c5.6-14.6,5.6-24.7,0-30.3c-3.7-3.5-7.7-3.6-12.1-0.3c-1.8,1.2-3.2,2.9-4.2,5c-5.6,5.3-9.7,15.4-12.1,30.3
		c-2.5,14.2-1.7,22.5,2.4,24.8c4.4,2.8,11.6-4.3,21.6-21.4C402.8,220,404.3,217.3,405.9,214.5z"/>
	<path id="XMLID_218_" d="M466.3,99.5c5.3,1.2,9.3,6.4,12.1,15.4c2.8,9.1,4.4,20,4.6,32.8c0.3,12.8,0.3,26.7,0.1,41.7
		c-0.2,14.9-0.6,28.8-1.3,41.7c-0.7,12.8-0.5,23.9,0.5,33.2c-4.2,9.1-9.1,9.8-14.5,2.1c-4.7-6.7-7.4-14.4-7.9-23.2
		c0-2.3,0.2-4.1,0.5-5.5c-0.2-8.4,0.4-24.4,1.8-47.9c1.4-23.5,2.6-44.3,3.7-62.6C467.1,108.9,467.2,99.7,466.3,99.5z"/>
	<path id="XMLID_220_" d="M588.9,184.7c5.1,9.8,4.4,23.3-2.1,40.4c-6,16.5-14.4,28.3-25.3,35.3c-13.9,9.1-26.6,6.4-38-8.2
		c-9-15.5-10.7-32.3-5.3-50.6c4.4-15.1,12.1-25.7,23.2-31.6c14.1-7.6,28-4.7,41.9,8.7C585.1,180.4,587,182.4,588.9,184.7z
		 M566.2,214.5c5.6-14.6,5.6-24.7,0-30.3c-3.7-3.5-7.7-3.6-12.1-0.3c-1.8,1.2-3.2,2.9-4.2,5c-5.6,5.3-9.7,15.4-12.1,30.3
		c-2.5,14.2-1.7,22.5,2.4,24.8c4.4,2.8,11.6-4.3,21.6-21.4C563.2,220,564.7,217.3,566.2,214.5z"/>
	<path id="XMLID_223_" d="M681.8,161c1.8,2.5,2.7,4.4,2.8,5.9c0.1,1.5-0.4,2.5-1.6,3c-1.1,0.5-2.3,0.9-3.4,1.1
		c-1.1,0.2-2.3,0.2-3.6,0c-0.2,0.2-0.4,0.3-0.5,0.3c-0.5,0.4-1,0.7-1.3,1.1c-1.1,0.4-2.2,0.7-3.4,1.1c-0.4,0.2-1.1,0.5-2.1,1.1
		c-2.5,1.6-4.9,4.7-7.3,9.2c-2.4,4.6-4.4,9.9-6.2,16c-1.8,6.1-3.4,12.6-5,19.5c-1.6,6.9-3.1,13.7-4.5,20.2
		c-1.4,6.5-2.8,12.4-4.1,17.5c-1.3,5.2-2.7,9.2-4.1,12c-1.4,2.8-2.8,3.9-4.2,3.2c-4.6-0.5-8.1-2.5-10.5-5.9
		c-2.5-3.4-3.7-7.5-3.7-12.3c0-4.7,0.2-9.8,0.5-15.3c0.4-5.4,0.9-10.4,1.6-14.8c0.7-4.4,0.6-8-0.3-10.8c1.4-15.1,1.6-32.4,0.5-52
		c-0.5-0.4-1-1-1.5-2c-0.4-1-0.7-1.8-0.7-2.5c0-0.7,0.2-1.1,0.5-1.1c3.5-2.1,6.1-1.6,7.6,1.6c0.4,0.5,0.4,0.8,0.3,0.8
		c1.2,1.4,2.1,2.8,2.5,4.1c0.4,1.3,0.7,2.3,0.7,3c0,0.7,0.1,1.1,0.3,1.1c1.2,6,2.5,12.8,4,20.6c5.6-12.8,11.7-22.4,18.3-28.6
		c6.6-6.2,12.9-7.2,18.9-2.8c0.4,0.2,0.8,0.4,1.3,0.5c0.7,0.5,1.2,0.9,1.6,1.1C679.7,158.8,681.9,160.3,681.8,161z M623.7,159.9
		v-0.3V159.9z"/>
	<path id="XMLID_226_" d="M747.4,186.5c40.3,15.8,60,31.1,59.3,45.9c-0.4,10-9.5,18.5-27.4,25.3c-17.4,6.7-34.7,9.3-52,7.9
		c-13.4-0.9-20.7-4.4-22.2-10.6c-0.4-2.5,0.1-4.4,1.3-5.8c1.2-1.4,2.5-2.1,3.7-2c1.2,0.1,1.9,0.2,2.1,0.4c3.2-1.1,5.1-1.6,5.7-1.6
		c0.6,0,1.9-0.1,3.8-0.3c1.9-0.2,3.3-0.4,4.2-0.5c1.4-0.4,3.5-0.9,6.3-1.6c12-0.9,23.6-4,34.8-9.2c0.2,0,0.3-0.1,0.3-0.3
		c6.9-3.7,11.5-6.7,14-9c-3.7-1.9-9.3-4.6-16.7-7.9c-7.5-3.3-13.8-6.2-19-8.6c-5.2-2.4-11.1-5.6-17.7-9.8
		c-6.6-4.1-11.8-8.1-15.6-11.9c-3.8-3.8-7-8.5-9.8-14.1c-2.7-5.6-3.7-11.4-3-17.4c0.7-6,3.2-13,7.5-21.1
		c4.3-8.1,10.6-16.6,18.9-25.6c27.6-19.7,47.5-25.5,59.6-17.4c8.3,5.3,11.2,15,9,29.3c-2.3,14.8-8.9,27.3-19.8,37.5
		c-1.6,1.4-3.2,2.7-4.7,4c-3.5,0.5-5.1-1.8-4.7-7.1c0.2-2.8,2-10.7,5.5-23.7c1.1-4,1.3-6.2,0.8-6.3c-0.2,1.4-0.2,1.5,0,0.3
		c0-0.4,0.1-1,0.3-1.8c0.7-5.1,1.2-8.9,1.6-11.3c-0.2,0-0.4,0.1-0.8,0.3c-10,2.6-19.1,7.8-27.3,15.4s-13.9,15.5-17.3,23.6
		c-1.9,5.6-3,9.1-3.3,10.3c-0.3,1.2-0.2,4,0.1,8.2v0.3c0.4,0.7,0.8,1.6,1.3,2.6c0.5,1.1,0.8,1.7,0.9,1.8c0.1,0.2,0.3,0.6,0.7,1.3
		c0.4,0.7,0.6,1.1,0.8,1.1c0.2,0,0.6,0.2,1.2,0.7c0.6,0.4,1.2,0.8,1.7,0.9c0.5,0.2,1.3,0.6,2.4,1.2c1.1,0.6,2.1,1.1,3.2,1.6
		c1.1,0.4,2.5,1.1,4.4,2.1C743.3,184.5,745.3,185.5,747.4,186.5z M783,222.7c-0.2,0.5-0.3,1.1-0.3,1.6
		C783.3,223.6,783.4,223,783,222.7z"/>
	<path id="XMLID_229_" d="M919.7,206.3c5.4,4.7,4.6,13.3-2.6,25.6c-7,12.1-16.2,21.5-27.4,28.2c-15.1,9.1-27,7.9-35.6-3.7
		c-4.2-5.6-7.3-13.5-9.2-23.7c-0.9-3-1.1-7.2-0.7-12.7c0.4-5.4,0.8-11.4,1.1-17.9c0.3-6.5,0.4-12.5,0.4-18.1c0-5.5-0.9-9.9-2.8-13.1
		c-1.8-3.2-4.7-4.2-8.6-3.2c-3.3-2.1-4.9-3.8-4.7-5.1c0.2-1.3,1.3-2.5,3.3-3.7c2-1.1,4.3-2.1,6.7-2.8c2.5-0.7,4.4-1.5,5.8-2.4
		c1.4-0.9,1.5-1.8,0.3-2.9c1.4-25.5,2.6-39.5,3.7-41.9c1.4-2.3,3.9-1.2,7.4,3.2c1.6,4.9,2.7,9.7,3.3,14.4c0.6,4.7,1.1,9.3,1.3,14
		c0.3,4.7,0.5,7.7,0.7,9.1c1.9,1.6,5.1,2.5,9.4,2.6c4.3,0.2,8.5,0,12.5-0.5c4-0.5,8.1-0.5,12.3,0.1c4.1,0.6,7.2,2.2,9.1,4.6
		c1.9,3.9,0.8,6.5-3.4,7.8s-9,1.7-14.2,1.2c-5.3-0.5-8.9-0.3-10.8,0.8c-1.8,0.2-3.9,0.4-6.3,0.5c-4.2,0.5-6.6,1.2-7.1,2
		s-0.5,3.5,0,8c1.8,12.8,2.5,26.5,2.1,40.9c-0.5,8.4-0.4,14.8,0.4,19s1.8,6.9,3,8c1.2,1.1,3.3,0.6,6.3-1.7c3-2.3,5.5-4.5,7.5-6.7
		c2-2.2,5.1-5.7,9.1-10.4c2.5-3,4.3-5.2,5.5-6.6c1.2-1.4,2.9-3.3,5-5.7c2.1-2.4,3.9-4,5.3-5c1.4-1,2.9-1.9,4.5-2.9
		c1.6-1,3-1.4,4.4-1.2C917.7,204.7,918.8,205.3,919.7,206.3z M847.7,121.7v0.3V121.7z"/>
	<path id="XMLID_232_" d="M1013.3,161c1.8,2.5,2.7,4.4,2.8,5.9c0.1,1.5-0.4,2.5-1.6,3c-1.1,0.5-2.3,0.9-3.4,1.1
		c-1.1,0.2-2.3,0.2-3.6,0c-0.2,0.2-0.4,0.3-0.5,0.3c-0.5,0.4-1,0.7-1.3,1.1c-1.1,0.4-2.2,0.7-3.4,1.1c-0.4,0.2-1.1,0.5-2.1,1.1
		c-2.5,1.6-4.9,4.7-7.3,9.2c-2.4,4.6-4.4,9.9-6.2,16c-1.8,6.1-3.4,12.6-5,19.5c-1.6,6.9-3.1,13.7-4.5,20.2
		c-1.4,6.5-2.8,12.4-4.1,17.5c-1.3,5.2-2.7,9.2-4.1,12c-1.4,2.8-2.8,3.9-4.2,3.2c-4.6-0.5-8.1-2.5-10.5-5.9
		c-2.5-3.4-3.7-7.5-3.7-12.3c0-4.7,0.2-9.8,0.5-15.3c0.4-5.4,0.9-10.4,1.6-14.8c0.7-4.4,0.6-8-0.3-10.8c1.4-15.1,1.6-32.4,0.5-52
		c-0.5-0.4-1-1-1.5-2c-0.4-1-0.7-1.8-0.7-2.5c0-0.7,0.2-1.1,0.5-1.1c3.5-2.1,6.1-1.6,7.6,1.6c0.4,0.5,0.4,0.8,0.3,0.8
		c1.2,1.4,2.1,2.8,2.5,4.1c0.4,1.3,0.7,2.3,0.7,3c0,0.7,0.1,1.1,0.3,1.1c1.2,6,2.5,12.8,4,20.6c5.6-12.8,11.7-22.4,18.3-28.6
		c6.6-6.2,12.9-7.2,18.9-2.8c0.4,0.2,0.8,0.4,1.3,0.5c0.7,0.5,1.2,0.9,1.6,1.1C1011.3,158.8,1013.4,160.3,1013.3,161z M955.3,159.9
		v-0.3V159.9z"/>
	<path id="XMLID_235_" d="M1107.7,195c-2.5,7.4-4.2,13.9-5.1,19.6c-1,5.7-1.3,10.4-0.9,14c0.3,3.6,1.1,6.7,2.1,9.4
		c1.1,2.6,2.4,4.7,4.1,6.1c1.7,1.4,3.4,2.6,5.1,3.6c1.8,1,3.3,1.8,4.7,2.5c1.4,0.7,2.5,1.5,3.3,2.4c0.8,0.9,1,2,0.7,3.4
		c-0.4,1.4-1.4,3.3-3.2,5.5c-3.9,1.4-7.3,2-10.3,1.7c-3-0.3-5.6-1-7.9-2.1c-2.3-1.1-4.2-2.6-5.8-4.5c-1.6-1.8-2.9-3.6-4.1-5.3
		c-1.1-1.7-2.2-3.1-3-4.2c-0.9-1.1-1.6-1.6-2.2-1.5c-0.6,0.2-1.2,1.1-1.7,2.9c-3.7,6.2-7.6,11.1-11.7,14.8c-4.1,3.7-8,5.8-11.7,6.5
		c-3.7,0.6-7.3,0.4-10.8-0.8c-3.5-1.1-6.6-3.4-9.1-6.9c-2.6-3.4-4.7-7.4-6.6-12c-1.8-4.6-3-9.8-3.4-15.8c-0.4-6-0.3-12.2,0.4-18.7
		c0.2-6.3,1.4-12.7,3.7-19.3c2.3-6.5,5.3-12.4,9-17.5c3.7-5.2,8-9.4,13.1-12.5c5-3.2,10.2-4.9,15.7-5.3c5.4-0.4,11.2,1.5,17.4,5.4
		c6.2,4,12,10.2,17.7,18.6c0.9,1.9,1.4,3.7,1.6,5.1c0.2,1.5,0.2,2.5,0,2.9c-0.2,0.4-0.4,0.9-0.7,1.3
		C1107.6,194.8,1107.5,195,1107.7,195z M1094.2,177.3c0.2-0.2,0-0.4-0.4-0.7c-0.4-0.3-0.9-0.6-1.5-0.9c-0.5-0.4-0.8-0.6-0.8-0.8
		c-12.8-6.2-23.6-0.6-32.2,16.6c-6.3,13-9.5,26.7-9.5,41.1c0,9.3,1.7,13.7,5,13.2c3.7-0.4,8.6-7.5,14.8-21.4
		c1.4-1.2,3.1-4.5,5.1-9.9c2-5.4,3.9-10.8,5.7-16.2c1.8-5.4,3.9-10.4,6.5-14.8C1089.5,179.2,1092,177.1,1094.2,177.3z"/>
	<path id="XMLID_238_" d="M1223.5,175.5c2.5,4.6,4.1,9.8,5,15.8c0.9,6,1,12.1,0.3,18.5c-0.7,6.3-2.4,12.4-5,18.2
		c-2.6,5.8-6.3,10.7-10.9,14.8c-4.7,4-10.5,6.8-17.5,8.3c-7,1.5-15.3,1.2-24.8-0.9c-0.7,1.4-0.9,4.5-0.7,9.4
		c0.3,4.8,0.4,10.6,0.4,17.4c0,6.8-0.1,13.2-0.3,19.3c-0.2,6.1-1.1,11.1-2.6,15c-1.6,4-3.8,5.6-6.6,4.9c-4.4,0.2-7.8-1.9-10.3-6.2
		c-2.5-4.3-4-10.3-4.7-18.1c-0.7-7.7-1-16-0.8-24.7c0.2-8.7,0.9-18.2,2.1-28.6c1.2-10.4,2.4-19.4,3.4-27c1.1-7.6,2.2-15.2,3.3-22.5
		c1.1-7.4,1.8-11.5,2-12.4c0.4-3.2,1.1-5.5,2.1-7c1.1-1.5,2.2-2.2,3.3-2.1c1.1,0.1,2.3,0.4,3.4,1.1c1.1,0.6,2.1,1.3,2.8,2.1
		c0.7,0.8,1,1.3,0.8,1.5c5.4-6.3,11-10.6,16.6-12.9c5.6-2.3,10.6-2.9,14.9-1.8c4.3,1.1,8.3,2.8,12,5.3c3.7,2.5,6.5,4.9,8.4,7.4
		C1222,172.4,1223.1,174.2,1223.5,175.5z M1207.1,200.5c0.5-16.5-2.1-24.4-7.9-23.5c-5.3,1.1-11.5,8.4-18.7,21.9
		c-7.7,14.4-11.2,25.2-10.3,32.4c0.5,3.5,2.3,5.1,5.3,4.7c10.4-3.5,17.9-7.8,22.5-12.9C1202.7,218.1,1205.7,210.5,1207.1,200.5z"/>
</g>
</svg>
